<svg xmlns="http://www.w3.org/2000/svg" xmlns:xlink="http://www.w3.org/1999/xlink" viewBox="0 0 81.71 72.12"><defs><style>.cls-1{fill:url(#Gradiente_sem_nome_9);}.cls-2{fill:url(#Gradiente_sem_nome_12);}.cls-3{fill:#deaa6f;}.cls-4{fill:url(#Gradiente_sem_nome_124);}.cls-5{fill:url(#Gradiente_sem_nome_124-2);}.cls-6{fill:url(#Gradiente_sem_nome_124-3);}.cls-7{fill:url(#Gradiente_sem_nome_124-4);}.cls-8{isolation:isolate;}.cls-9{clip-path:url(#clip-path);}.cls-10{fill:url(#Gradiente_sem_nome_8);}.cls-11{clip-path:url(#clip-path-2);}.cls-12{fill:url(#Gradiente_sem_nome_11);}.cls-13{mix-blend-mode:color;}.cls-14{clip-path:url(#clip-path-3);}.cls-15{clip-path:url(#clip-path-4);}.cls-16{mix-blend-mode:color-dodge;opacity:0.18;}.cls-17{fill:url(#Gradiente_sem_nome_124-6);}.cls-18{fill:url(#Gradiente_sem_nome_124-8);}.cls-19{fill:url(#Gradiente_sem_nome_124-10);}.cls-20{fill:url(#Gradiente_sem_nome_124-12);}</style><radialGradient id="Gradiente_sem_nome_9" cx="-991.18" cy="-1688.17" r="97.34" gradientTransform="matrix(0.76, -0.65, -0.65, -0.76, -363.04, -1904.56)" gradientUnits="userSpaceOnUse"><stop offset="0.29" stop-color="#d0b695"/><stop offset="0.34" stop-color="#ac9275"/><stop offset="0.41" stop-color="#81674f"/><stop offset="0.47" stop-color="#624834"/><stop offset="0.52" stop-color="#4f3523"/><stop offset="0.56" stop-color="#482e1d"/></radialGradient><radialGradient id="Gradiente_sem_nome_12" cx="-958.09" cy="-1718.78" r="50.05" gradientTransform="matrix(0.48, -0.88, -1.12, -0.62, -1443.7, -1875.95)" gradientUnits="userSpaceOnUse"><stop offset="0.29" stop-color="#d0b695"/><stop offset="0.36" stop-color="#a1876c"/><stop offset="0.43" stop-color="#715741"/><stop offset="0.48" stop-color="#533927"/><stop offset="0.51" stop-color="#482e1d"/></radialGradient><radialGradient id="Gradiente_sem_nome_124" cx="-991.18" cy="-1688.17" r="97.34" gradientTransform="matrix(0.76, -0.65, -0.65, -0.76, -363.04, -1904.56)" gradientUnits="userSpaceOnUse"><stop offset="0.36" stop-color="#70572a"/><stop offset="0.43" stop-color="#6c5429"/><stop offset="0.49" stop-color="#614b24"/><stop offset="0.55" stop-color="#4e3c1d"/><stop offset="0.61" stop-color="#332713"/><stop offset="0.68" stop-color="#110d06"/><stop offset="0.7"/></radialGradient><radialGradient id="Gradiente_sem_nome_124-2" cx="-958.09" cy="-1718.78" r="50.05" gradientTransform="matrix(0.48, -0.88, -1.12, -0.62, -1443.7, -1875.95)" xlink:href="#Gradiente_sem_nome_124"/><radialGradient id="Gradiente_sem_nome_124-3" cx="-973.49" cy="-1721.02" r="16.18" xlink:href="#Gradiente_sem_nome_124"/><radialGradient id="Gradiente_sem_nome_124-4" cx="-946.15" cy="-1713.21" r="18.99" xlink:href="#Gradiente_sem_nome_124"/><clipPath id="clip-path" transform="translate(33.82)"><path class="cls-1" d="M0,18s16.83,7.5,17.65,16.77c.9,10.17-3.26,21.64-1.44,24.27,0,0-11.31-16.17-12.87-19.7C.09,32,2.29,27.14,0,18Z"/></clipPath><radialGradient id="Gradiente_sem_nome_8" cx="-987.1" cy="-1712.81" r="34.76" gradientTransform="matrix(0.93, -0.37, -0.68, -1.68, -246.74, -3201.56)" gradientUnits="userSpaceOnUse"><stop offset="0.14" stop-color="#d0b695"/><stop offset="0.27" stop-color="#947a60"/><stop offset="0.46" stop-color="#482e1d"/></radialGradient><clipPath id="clip-path-2" transform="translate(33.82)"><path class="cls-2" d="M2.23,1.26s11.46,20,22.08,21.88,16.28.63,19.74,1.7c2.94.9,3,2.4,3,2.4s2.38-2.94-5.19-11.86C23.52-6.24,2.23,1.26,2.23,1.26Z"/></clipPath><radialGradient id="Gradiente_sem_nome_11" cx="-969.41" cy="-1714.82" r="42.29" gradientTransform="matrix(0.41, -0.91, -1.46, -0.65, -2102.67, -1970.72)" gradientUnits="userSpaceOnUse"><stop offset="0.32" stop-color="#d0b695"/><stop offset="0.62" stop-color="#482e1d"/><stop offset="0.7" stop-color="#644830"/><stop offset="0.86" stop-color="#ac8a61"/><stop offset="0.95" stop-color="#d5af7c"/></radialGradient><clipPath id="clip-path-3" transform="translate(33.82)"><path class="cls-3" d="M0,18s16.83,7.5,17.65,16.77c.9,10.17-3.26,21.64-1.44,24.27,0,0-11.31-16.17-12.87-19.7C.09,32,2.29,27.14,0,18Z"/></clipPath><clipPath id="clip-path-4" transform="translate(33.82)"><path class="cls-3" d="M2.23,1.26s11.46,20,22.08,21.88,16.28.63,19.74,1.7c2.94.9,3,2.4,3,2.4s2.38-2.94-5.19-11.86C23.52-6.24,2.23,1.26,2.23,1.26Z"/></clipPath><radialGradient id="Gradiente_sem_nome_124-6" cx="-987.1" cy="-1712.81" r="34.76" gradientTransform="matrix(0.93, -0.37, -0.68, -1.68, -246.74, -3201.56)" xlink:href="#Gradiente_sem_nome_124"/><radialGradient id="Gradiente_sem_nome_124-8" cx="-969.41" cy="-1714.82" r="42.29" gradientTransform="matrix(0.41, -0.91, -1.46, -0.65, -2102.67, -1970.72)" xlink:href="#Gradiente_sem_nome_124"/><radialGradient id="Gradiente_sem_nome_124-10" cx="-997.56" cy="-1716.29" r="30.27" xlink:href="#Gradiente_sem_nome_124"/><radialGradient id="Gradiente_sem_nome_124-12" cx="-971.97" cy="-1715.31" r="34.92" xlink:href="#Gradiente_sem_nome_124"/></defs><g class="cls-8"><g id="Layer_2" data-name="Layer 2"><g id="TEXTS"><g id="Arte_4" data-name="Arte 4"><path class="cls-1" d="M0,18s16.83,7.5,17.65,16.77c.9,10.17-3.26,21.64-1.44,24.27,0,0-11.31-16.17-12.87-19.7C.09,32,2.29,27.14,0,18Z" transform="translate(33.82)"/><g class="cls-9"><path class="cls-10" d="M-6.17,8.4,0,18s11.73,21.68,16.21,41S-33.45,70.51-33.45,70.51l-.37-41.93Z" transform="translate(33.82)"/></g><path class="cls-2" d="M2.23,1.26s11.46,20,22.08,21.88,16.28.63,19.74,1.7c2.94.9,3,2.4,3,2.4s2.38-2.94-5.19-11.86C23.52-6.24,2.23,1.26,2.23,1.26Z" transform="translate(33.82)"/><g class="cls-11"><path class="cls-12" d="M-16.71,5.93,2.23,1.26s39.26,8.15,44.82,26S28.47,59.09,28.47,59.09l-39.59,4.54L-29.54,28.26Z" transform="translate(33.82)"/></g><g class="cls-13"><path class="cls-3" d="M0,18s16.83,7.5,17.65,16.77c.9,10.17-3.26,21.64-1.44,24.27,0,0-11.31-16.17-12.87-19.7C.09,32,2.29,27.14,0,18Z" transform="translate(33.82)"/><g class="cls-14"><path class="cls-3" d="M-6.17,8.4,0,18s11.73,21.68,16.21,41S-33.45,70.51-33.45,70.51l-.37-41.93Z" transform="translate(33.82)"/></g></g><g class="cls-13"><path class="cls-3" d="M2.23,1.26s11.46,20,22.08,21.88,16.28.63,19.74,1.7c2.94.9,3,2.4,3,2.4s2.38-2.94-5.19-11.86C23.52-6.24,2.23,1.26,2.23,1.26Z" transform="translate(33.82)"/><g class="cls-15"><path class="cls-3" d="M-16.71,5.93,2.23,1.26s39.26,8.15,44.82,26S28.47,59.09,28.47,59.09l-39.59,4.54L-29.54,28.26Z" transform="translate(33.82)"/></g></g><g class="cls-16"><path class="cls-4" d="M0,18s16.83,7.5,17.65,16.77c.9,10.17-3.26,21.64-1.44,24.27,0,0-11.31-16.17-12.87-19.7C.09,32,2.29,27.14,0,18Z" transform="translate(33.82)"/><g class="cls-9"><path class="cls-17" d="M-6.17,8.4,0,18s11.73,21.68,16.21,41S-33.45,70.51-33.45,70.51l-.37-41.93Z" transform="translate(33.82)"/></g></g><g class="cls-16"><path class="cls-5" d="M2.23,1.26s11.46,20,22.08,21.88,16.28.63,19.74,1.7c2.94.9,3,2.4,3,2.4s2.38-2.94-5.19-11.86C23.52-6.24,2.23,1.26,2.23,1.26Z" transform="translate(33.82)"/><g class="cls-11"><path class="cls-18" d="M-16.71,5.93,2.23,1.26s39.26,8.15,44.82,26S28.47,59.09,28.47,59.09l-39.59,4.54L-29.54,28.26Z" transform="translate(33.82)"/></g></g><g class="cls-16"><path class="cls-6" d="M0,18s16.83,7.5,17.65,16.77c.9,10.17-3.26,21.64-1.44,24.27,0,0-11.31-16.17-12.87-19.7C.09,32,2.29,27.14,0,18Z" transform="translate(33.82)"/><g class="cls-9"><path class="cls-19" d="M-6.17,8.4,0,18s11.73,21.68,16.21,41S-33.45,70.51-33.45,70.51l-.37-41.93Z" transform="translate(33.82)"/></g></g><g class="cls-16"><path class="cls-7" d="M2.23,1.26s11.46,20,22.08,21.88,16.28.63,19.74,1.7c2.94.9,3,2.4,3,2.4s2.38-2.94-5.19-11.86C23.52-6.24,2.23,1.26,2.23,1.26Z" transform="translate(33.82)"/><g class="cls-11"><path class="cls-20" d="M-16.71,5.93,2.23,1.26s39.26,8.15,44.82,26S28.47,59.09,28.47,59.09l-39.59,4.54L-29.54,28.26Z" transform="translate(33.82)"/></g></g></g></g></g></g></svg>