<svg xmlns="http://www.w3.org/2000/svg" xmlns:xlink="http://www.w3.org/1999/xlink" viewBox="0 0 96.66 101.68"><defs><style>.cls-1{fill:url(#Gradiente_sem_nome_9);}.cls-2{fill:url(#Gradiente_sem_nome_12);}.cls-3{fill:#deaa6f;}.cls-4{fill:url(#Gradiente_sem_nome_124);}.cls-5{fill:url(#Gradiente_sem_nome_124-2);}.cls-6{fill:url(#Gradiente_sem_nome_124-3);}.cls-7{fill:url(#Gradiente_sem_nome_124-4);}.cls-8{isolation:isolate;}.cls-9{clip-path:url(#clip-path);}.cls-10{fill:url(#Gradiente_sem_nome_8);}.cls-11{clip-path:url(#clip-path-2);}.cls-12{fill:url(#Gradiente_sem_nome_11);}.cls-13{mix-blend-mode:color;}.cls-14{clip-path:url(#clip-path-3);}.cls-15{clip-path:url(#clip-path-4);}.cls-16{mix-blend-mode:color-dodge;opacity:0.18;}.cls-17{fill:url(#Gradiente_sem_nome_124-6);}.cls-18{fill:url(#Gradiente_sem_nome_124-8);}.cls-19{fill:url(#Gradiente_sem_nome_124-10);}.cls-20{fill:url(#Gradiente_sem_nome_124-12);}</style><radialGradient id="Gradiente_sem_nome_9" cx="-648.96" cy="-1180.75" r="118.48" gradientTransform="translate(782.18 -1108.01) rotate(-120)" gradientUnits="userSpaceOnUse"><stop offset="0.29" stop-color="#d0b695"/><stop offset="0.34" stop-color="#ac9275"/><stop offset="0.41" stop-color="#81674f"/><stop offset="0.47" stop-color="#624834"/><stop offset="0.52" stop-color="#4f3523"/><stop offset="0.56" stop-color="#482e1d"/></radialGradient><radialGradient id="Gradiente_sem_nome_12" cx="-608.69" cy="-1218.01" r="60.92" gradientTransform="translate(1472.83 -823.06) rotate(-99.24) scale(1 1.28)" gradientUnits="userSpaceOnUse"><stop offset="0.29" stop-color="#d0b695"/><stop offset="0.36" stop-color="#a1876c"/><stop offset="0.43" stop-color="#715741"/><stop offset="0.48" stop-color="#533927"/><stop offset="0.51" stop-color="#482e1d"/></radialGradient><radialGradient id="Gradiente_sem_nome_124" cx="-648.96" cy="-1180.75" r="118.48" gradientTransform="translate(782.18 -1108.01) rotate(-120)" gradientUnits="userSpaceOnUse"><stop offset="0.36" stop-color="#70572a"/><stop offset="0.43" stop-color="#6c5429"/><stop offset="0.49" stop-color="#614b24"/><stop offset="0.55" stop-color="#4e3c1d"/><stop offset="0.61" stop-color="#332713"/><stop offset="0.68" stop-color="#110d06"/><stop offset="0.7"/></radialGradient><radialGradient id="Gradiente_sem_nome_124-2" cx="-608.69" cy="-1218.01" r="60.92" gradientTransform="translate(1472.83 -823.06) rotate(-99.24) scale(1 1.28)" xlink:href="#Gradiente_sem_nome_124"/><radialGradient id="Gradiente_sem_nome_124-3" cx="-627.42" cy="-1220.74" r="19.69" xlink:href="#Gradiente_sem_nome_124"/><radialGradient id="Gradiente_sem_nome_124-4" cx="-594.15" cy="-1211.23" r="23.11" xlink:href="#Gradiente_sem_nome_124"/><clipPath id="clip-path" transform="translate(4.43)"><path class="cls-1" d="M57.77,27.85s-22.37,1.72-27.1,12C25.48,51.14,25.56,66,22.4,68.27c0,0,19.58-13.92,22.81-17.33C52,43.83,51.42,37.35,57.77,27.85Z"/></clipPath><radialGradient id="Gradiente_sem_nome_8" cx="-644" cy="-1210.74" r="42.31" gradientTransform="matrix(-0.75, -0.66, 1.2, -1.35, 1026.19, -2010.06)" gradientUnits="userSpaceOnUse"><stop offset="0.14" stop-color="#d0b695"/><stop offset="0.27" stop-color="#947a60"/><stop offset="0.46" stop-color="#482e1d"/></radialGradient><clipPath id="clip-path-2" transform="translate(4.43)"><path class="cls-2" d="M62.07,7.7S40.74,26,27.81,23.75,8.89,17.82,4.49,17.63C.75,17.46.06,19.15.06,19.15s-1.53-4.34,10.8-11.47C40.74-9.61,62.07,7.7,62.07,7.7Z"/></clipPath><radialGradient id="Gradiente_sem_nome_11" cx="-622.47" cy="-1213.18" r="51.47" gradientTransform="matrix(-0.08, -1, 1.59, -0.12, 1930.25, -730.2)" gradientUnits="userSpaceOnUse"><stop offset="0.32" stop-color="#d0b695"/><stop offset="0.62" stop-color="#482e1d"/><stop offset="0.7" stop-color="#644830"/><stop offset="0.86" stop-color="#ac8a61"/><stop offset="0.95" stop-color="#d5af7c"/></radialGradient><clipPath id="clip-path-3" transform="translate(4.43)"><path class="cls-3" d="M57.77,27.85s-22.37,1.72-27.1,12C25.48,51.14,25.56,66,22.4,68.27c0,0,19.58-13.92,22.81-17.33C52,43.83,51.42,37.35,57.77,27.85Z"/></clipPath><clipPath id="clip-path-4" transform="translate(4.43)"><path class="cls-3" d="M62.07,7.7S40.74,26,27.81,23.75,8.89,17.82,4.49,17.63C.75,17.46.06,19.15.06,19.15s-1.53-4.34,10.8-11.47C40.74-9.61,62.07,7.7,62.07,7.7Z"/></clipPath><radialGradient id="Gradiente_sem_nome_124-6" cx="-644" cy="-1210.74" r="42.31" gradientTransform="matrix(-0.75, -0.66, 1.2, -1.35, 1026.19, -2010.06)" xlink:href="#Gradiente_sem_nome_124"/><radialGradient id="Gradiente_sem_nome_124-8" cx="-622.47" cy="-1213.18" r="51.47" gradientTransform="matrix(-0.08, -1, 1.59, -0.12, 1930.25, -730.2)" xlink:href="#Gradiente_sem_nome_124"/><radialGradient id="Gradiente_sem_nome_124-10" cx="-656.73" cy="-1214.98" r="36.84" xlink:href="#Gradiente_sem_nome_124"/><radialGradient id="Gradiente_sem_nome_124-12" cx="-625.58" cy="-1213.78" r="42.5" xlink:href="#Gradiente_sem_nome_124"/></defs><g class="cls-8"><g id="Layer_2" data-name="Layer 2"><g id="TEXTS"><g id="Arte_4" data-name="Arte 4"><path class="cls-1" d="M57.77,27.85s-22.37,1.72-27.1,12C25.48,51.14,25.56,66,22.4,68.27c0,0,19.58-13.92,22.81-17.33C52,43.83,51.42,37.35,57.77,27.85Z" transform="translate(4.43)"/><g class="cls-9"><path class="cls-10" d="M68.79,19.32l-11,8.53S35.46,47.9,22.4,68.27s52.25,33.41,52.25,33.41L92.24,53.77Z" transform="translate(4.43)"/></g><path class="cls-2" d="M62.07,7.7S40.74,26,27.81,23.75,8.89,17.82,4.49,17.63C.75,17.46.06,19.15.06,19.15s-1.53-4.34,10.8-11.47C40.74-9.61,62.07,7.7,62.07,7.7Z" transform="translate(4.43)"/><g class="cls-11"><path class="cls-12" d="M81.88,20.8,62.07,7.7S13.74,1,.06,19.15,8.34,63.26,8.34,63.26l43.52,21.4,35.59-33Z" transform="translate(4.43)"/></g><g class="cls-13"><path class="cls-3" d="M57.77,27.85s-22.37,1.72-27.1,12C25.48,51.14,25.56,66,22.4,68.27c0,0,19.58-13.92,22.81-17.33C52,43.83,51.42,37.35,57.77,27.85Z" transform="translate(4.43)"/><g class="cls-14"><path class="cls-3" d="M68.79,19.32l-11,8.53S35.46,47.9,22.4,68.27s52.25,33.41,52.25,33.41L92.24,53.77Z" transform="translate(4.43)"/></g></g><g class="cls-13"><path class="cls-3" d="M62.07,7.7S40.74,26,27.81,23.75,8.89,17.82,4.49,17.63C.75,17.46.06,19.15.06,19.15s-1.53-4.34,10.8-11.47C40.74-9.61,62.07,7.7,62.07,7.7Z" transform="translate(4.43)"/><g class="cls-15"><path class="cls-3" d="M81.88,20.8,62.07,7.7S13.74,1,.06,19.15,8.34,63.26,8.34,63.26l43.52,21.4,35.59-33Z" transform="translate(4.43)"/></g></g><g class="cls-16"><path class="cls-4" d="M57.77,27.85s-22.37,1.72-27.1,12C25.48,51.14,25.56,66,22.4,68.27c0,0,19.58-13.92,22.81-17.33C52,43.83,51.42,37.35,57.77,27.85Z" transform="translate(4.43)"/><g class="cls-9"><path class="cls-17" d="M68.79,19.32l-11,8.53S35.46,47.9,22.4,68.27s52.25,33.41,52.25,33.41L92.24,53.77Z" transform="translate(4.43)"/></g></g><g class="cls-16"><path class="cls-5" d="M62.07,7.7S40.74,26,27.81,23.75,8.89,17.82,4.49,17.63C.75,17.46.06,19.15.06,19.15s-1.53-4.34,10.8-11.47C40.74-9.61,62.07,7.7,62.07,7.7Z" transform="translate(4.43)"/><g class="cls-11"><path class="cls-18" d="M81.88,20.8,62.07,7.7S13.74,1,.06,19.15,8.34,63.26,8.34,63.26l43.52,21.4,35.59-33Z" transform="translate(4.43)"/></g></g><g class="cls-16"><path class="cls-6" d="M57.77,27.85s-22.37,1.72-27.1,12C25.48,51.14,25.56,66,22.4,68.27c0,0,19.58-13.92,22.81-17.33C52,43.83,51.42,37.35,57.77,27.85Z" transform="translate(4.43)"/><g class="cls-9"><path class="cls-19" d="M68.79,19.32l-11,8.53S35.46,47.9,22.4,68.27s52.25,33.41,52.25,33.41L92.24,53.77Z" transform="translate(4.43)"/></g></g><g class="cls-16"><path class="cls-7" d="M62.07,7.7S40.74,26,27.81,23.75,8.89,17.82,4.49,17.63C.75,17.46.06,19.15.06,19.15s-1.53-4.34,10.8-11.47C40.74-9.61,62.07,7.7,62.07,7.7Z" transform="translate(4.43)"/><g class="cls-11"><path class="cls-20" d="M81.88,20.8,62.07,7.7S13.74,1,.06,19.15,8.34,63.26,8.34,63.26l43.52,21.4,35.59-33Z" transform="translate(4.43)"/></g></g></g></g></g></g></svg>