<svg xmlns="http://www.w3.org/2000/svg" viewBox="0 0 51.23 51.14"><g id="Layer_2" data-name="Layer 2"><g id="TEXTS"><path d="M26,30.61a4.5,4.5,0,0,0-.62.08.33.33,0,0,0-.19.18,12.23,12.23,0,0,1-1.8,2.76v-10c0-.23.06-.31.3-.35.59-.11,1.18-.26,1.81-.4v3.93c.41,0,.79,0,1.17,0s1.05-.1,1.58-.14A1.64,1.64,0,0,0,29.46,26a19.09,19.09,0,0,1,3.43-3.41,5.37,5.37,0,0,1,2.28-1.06,3.46,3.46,0,0,1,.91,0c.09,0,.18.15.26.23-.09,0-.19.16-.28.16A4.37,4.37,0,0,0,33,23.34a21.24,21.24,0,0,0-3.33,4.5c-.4.65-.77,1.31-1.15,2a1.43,1.43,0,0,0-.11.21c.67.1,1.34.15,2,.29a5.34,5.34,0,0,1,3.46,2.25,3.73,3.73,0,0,1,.58,2.76c0,.19,0,.41-.32.45,0-.27,0-.52,0-.76a3.67,3.67,0,0,0-2.2-3.58,6.24,6.24,0,0,0-2.77-.76c-.35,0-.77-.14-1,0s-.37.55-.54.85a27.81,27.81,0,0,1-2.52,3.92A27.37,27.37,0,0,1,21.66,39a14.65,14.65,0,0,1-3.42,2.3,6,6,0,0,1-3.32.62,1.9,1.9,0,0,1-1.78-2.44A6.72,6.72,0,0,1,14.94,36a16.94,16.94,0,0,1,8-5h.13c.06.28,0,.42-.31.52A17.44,17.44,0,0,0,15,36.81a5.52,5.52,0,0,0-1.32,2.76c-.14,1,.28,1.87,1.54,1.86a4,4,0,0,0,1.18-.21,8.35,8.35,0,0,0,3-2,40.75,40.75,0,0,0,4.88-6C24.86,32.35,25.43,31.5,26,30.61Zm-.53-3.24v2.79c.23,0,.52-.05.79-.1a.46.46,0,0,0,.29-.17c.61-.83,1.2-1.68,1.8-2.52a.56.56,0,0,0,.06-.17L27,27.3Z"/><path d="M48.91,30.63l-1-.15c-.1-.36-.06-.46.25-.6l2.17-1-2.22-.3,0-.43,1.92.25c.23,0,.45.05.67.1s.28.09.29.16a.36.36,0,0,1-.21.46c-.51.21-1,.46-1.5.69a3.38,3.38,0,0,0-.63.36l2.1.29,0,.42-1.45-.18c-.14.61-.26,1.19-.41,1.77A24.26,24.26,0,0,1,45.59,40,24.77,24.77,0,0,1,32.15,50a22.75,22.75,0,0,1-5.36,1,27.63,27.63,0,0,1-3.28.07,25.59,25.59,0,0,1-5.35-.91A24.44,24.44,0,0,1,11,46.89,24.89,24.89,0,0,1,.26,29.61a21.69,21.69,0,0,1-.21-4.69A27.64,27.64,0,0,1,1,19.59,24.8,24.8,0,0,1,16,3.1a24.22,24.22,0,0,1,6.92-1.56l.24,0c.13,0,.26-.06.27.14s-.05.24-.23.27c-1,.13-2.1.22-3.13.42a23.54,23.54,0,0,0-10,4.52A24.16,24.16,0,0,0,1.67,18.62,23.78,23.78,0,0,0,.51,28.13,24.36,24.36,0,0,0,14.89,48.6a24,24,0,0,0,11.87,2A24.44,24.44,0,0,0,48.89,30.86C48.9,30.8,48.9,30.73,48.91,30.63Z"/><path d="M22.22,22.76a23.9,23.9,0,0,0,5.21-1.49,28.75,28.75,0,0,0,6.16-3.47l.34-.28c.36-.3.46-.32,1-.21-.42.34-.8.68-1.21,1A27.59,27.59,0,0,1,26,22.34c-1.19.38-2.43.59-3.64.89a.4.4,0,0,0-.25.22,4.25,4.25,0,0,0,.78,3.79,1.09,1.09,0,0,1,.12.69,4.92,4.92,0,0,1-2.15-4.52c-.18,0-.35,0-.51,0a16.79,16.79,0,0,1-6.19-.63,9,9,0,0,1-4-2.33A5,5,0,0,1,9.08,15a5,5,0,0,1,2.33-2.39,9,9,0,0,1,3.73-1,13.94,13.94,0,0,1,5.8.79,18.52,18.52,0,0,1,2.2,1.06.34.34,0,0,1,.14.31.26.26,0,0,1-.41.11,11.44,11.44,0,0,0-4.17-1.58,12,12,0,0,0-5.61.14,5.56,5.56,0,0,0-3.09,2,4,4,0,0,0-.47,4,5.91,5.91,0,0,0,2.94,3,12.41,12.41,0,0,0,4.37,1.34,16.33,16.33,0,0,0,3.89.05.34.34,0,0,0,.24-.17,12.47,12.47,0,0,1,2-4.47c.05.41.11.81.15,1.21a3,3,0,0,1-.32,1.65A16.92,16.92,0,0,0,22.22,22.76Z"/><path d="M38.87,16.28q.51,2,1,3.9c.16.62.32,1.24.46,1.86a.74.74,0,0,1,0,.25.69.69,0,0,1-.23-.17c-.25-.49-.46-1-.73-1.48a8.84,8.84,0,0,0-2.63-2.88,5.78,5.78,0,0,0-3.32-1c-1.86,0-3.72,0-5.59,0-1.44,0-2.06.62-2.19,2.12-.07.78-.05,1.57-.05,2.36,0,.23-.05.35-.3.41-.6.14-1.19.32-1.83.49a2.78,2.78,0,0,0,0-.29c0-1,0-2.07,0-3.11a2,2,0,0,0-2.13-2.09c-.11,0-.3-.12-.3-.19s.18-.18.32-.18h17.6Z"/><path d="M25.54,35.48c0,.92,0,1.8,0,2.67a13.84,13.84,0,0,0,.22,2,1.4,1.4,0,0,0,1.32,1.13,3.21,3.21,0,0,1,.43.07c.08,0,.13.11.19.16s-.12.19-.19.2c-.38,0-.77,0-1.15,0H21.6a.46.46,0,0,1-.17,0,2,2,0,0,1-.23-.18c.07-.06.14-.16.22-.19a4.51,4.51,0,0,1,.53-.08,1.61,1.61,0,0,0,1.37-1.46c.09-.6.08-1.22.12-1.83a.49.49,0,0,1,.06-.3C24.16,37,24.84,36.25,25.54,35.48Z"/><path d="M25.57,15.85c.45-.43.88-.89,1.36-1.29A15.82,15.82,0,0,1,34,11a8.84,8.84,0,0,1,2.81-.15c1.32.17,1.64,1,1.44,2.12A5.1,5.1,0,0,1,37,15.29a1,1,0,0,0-.18.24c-.23.44-.6.48-1.08.36l.29-.3a6.54,6.54,0,0,0,1.55-2.24,3.06,3.06,0,0,0,.2-.79A1,1,0,0,0,37,11.38a5.16,5.16,0,0,0-2.28,0A11.32,11.32,0,0,0,29.43,14c-.65.55-1.24,1.17-1.86,1.74a.77.77,0,0,1-.43.17c-.5,0-1,0-1.51,0Z"/><path d="M29.56,28.83c0-.29.13-.43.41-.43.73,0,1.46,0,2.19-.06a3.67,3.67,0,0,0,2.28-.83,3.56,3.56,0,0,0,1.09-2.42c0-.38,0-.76.09-1.25.11.12.21.18.23.26a1.13,1.13,0,0,1,0,.41q0,4,0,8a.48.48,0,0,1,0,.12c0,.08-.11.15-.16.22s-.14-.14-.16-.23c-.07-.36-.09-.74-.18-1.1a3.38,3.38,0,0,0-3-2.61c-.84-.08-1.69-.08-2.53-.12Z"/><path d="M51.19,26.72l-.56-.13-2.16-.52c-.14,0-.22-.08-.22-.24s0-.27.19-.34a16.14,16.14,0,0,0,1.83-.77c-.6-.15-1.2-.3-1.81-.43-.18,0-.3-.08-.32-.3s.11-.26.26-.32l2.36-.93.22-.07c.11.42.11.42-.26.57l-1.78.7,1.83.45c.46.11.36.07.37.51l-1,.41L49,25.75l1.88.45C51.26,26.28,51.27,26.3,51.19,26.72Z"/><path d="M47.74,15.18a1.2,1.2,0,0,0-.42-1.55,1,1,0,0,0-1.29.19,1,1,0,0,0-.18,1.28,1,1,0,0,0,1.11.54l-.52-1c.29-.24.31-.24.47,0s.33.65.51,1,.1.28-.12.35a1.41,1.41,0,0,1-1.56-.3A1.52,1.52,0,0,1,45.36,14a1.48,1.48,0,0,1,1.35-.94,1.53,1.53,0,0,1,1.58,1.81C48.21,15.32,48.15,15.35,47.74,15.18Z"/><path d="M44.41,10l.35-.62c.07-.13.15-.19.27-.05l1,1.26c-.26.3-.3.3-.52,0L45,10,44,11.7a1,1,0,0,0,.85-.36.44.44,0,0,1,.62-.1,1.59,1.59,0,0,1-1.47.84.49.49,0,0,0-.24.05c-.07,0-.18.13-.19.11a1.15,1.15,0,0,1-.21-.27,2.65,2.65,0,0,1-.11-.3.28.28,0,0,0-.07-.09,1.08,1.08,0,0,1,0-1.32A1,1,0,0,1,44.41,10Zm-.2.36a.48.48,0,0,0-.71.13c-.21.27-.17.56.14.91Z"/><path d="M36.25,4.44l.3,1.45c-.3,0-.5-.12-.54-.43s-.15-.61-.18-.93A.56.56,0,0,0,35.32,4c-.12.24-.25.49-.39.74s-.18.35-.53.12c.41-.82.82-1.65,1.25-2.46,0-.06.17-.1.23-.07q.61.3,1.2.63a.83.83,0,0,1,.24.22.73.73,0,0,1,.17.79.78.78,0,0,1-.69.48Zm-.31-1.68-.44.87c.34.16.64.32,1,.45A.44.44,0,0,0,37,3.91a.46.46,0,0,0-.11-.57,1.22,1.22,0,0,0-.17-.15Z"/><path d="M48.17,19.33a1.5,1.5,0,0,1,.14-3,1.46,1.46,0,0,1,1.44,1.57A1.44,1.44,0,0,1,48.17,19.33Zm1.18-1.45a1.17,1.17,0,0,0-1.05-1.15,1.15,1.15,0,0,0-1.15,1.05,1.13,1.13,0,0,0,1.05,1.15A1.16,1.16,0,0,0,49.35,17.88Z"/><path d="M47.45,20.15l2.95-.63A13.68,13.68,0,0,1,50.61,21a1.19,1.19,0,0,1-.69,1.12,1.48,1.48,0,0,1-2.26-1C47.59,20.82,47.53,20.5,47.45,20.15Zm.52.32c0,.78.29,1.23.77,1.4a1.18,1.18,0,0,0,1.22-.3c.44-.49.22-1,.09-1.54Z"/><path d="M31.69,2a1.41,1.41,0,0,1-1.43,1.54,1.44,1.44,0,0,1-1.59-1.4A1.43,1.43,0,0,1,30.13.56,1.41,1.41,0,0,1,31.69,2Zm-.42,0A1.12,1.12,0,0,0,30.15.91a1.13,1.13,0,0,0-1,1.17,1.09,1.09,0,0,0,1.14,1.07A1.11,1.11,0,0,0,31.27,2Z"/><path d="M42,6.17l-.87,1,1,.89c.22-.24.42-.45.61-.67s.27-.29.56,0L41.41,9.46c-.2.22-.27-.06-.47-.1l.91-1-1-.9-.65.72c-.26.29-.27.29-.55,0,.62-.69,1.23-1.38,1.85-2.06C41.73,5.84,41.82,6.09,42,6.17Z"/><path d="M33.13,1.31c-.21.58-.41,1.18-.64,1.77a.53.53,0,0,0,.16.68.86.86,0,0,0,.94.21.62.62,0,0,0,.25-.34c.19-.5.37-1,.55-1.5s.13-.38.53-.19c-.25.68-.48,1.38-.76,2.06a.67.67,0,0,1-.74.37,2.74,2.74,0,0,1-1-.27A.83.83,0,0,1,32.07,3l.54-1.49C32.74,1.11,32.77,1.1,33.13,1.31Z"/><path d="M37.9,6.32c.25-.08.36,0,.46.22a1.67,1.67,0,0,0,.51.55.39.39,0,0,0,.39,0,.61.61,0,0,0,.14-.44c0-.13-.13-.25-.22-.37s-.25-.31-.35-.48a.73.73,0,0,1,.51-1.15A1.21,1.21,0,0,1,40.7,5.81a.76.76,0,0,1-.16,0h-.19a1.16,1.16,0,0,0-.62-.78.34.34,0,0,0-.49.11.59.59,0,0,0,0,.45c.11.22.33.4.44.62a1.42,1.42,0,0,1,.18.66.68.68,0,0,1-.75.64A1.31,1.31,0,0,1,37.9,6.32Z"/><path d="M24.15,0h1.9V.35H24.59v1h1.28v.36H24.56V2.9h-.41Z"/><path d="M26.84.06l.43,0L27,2.66l1.22.14,0,.36L26.54,3Z"/><path d="M38.77,3.88,37.34,6.23c-.18.29-.3,0-.49,0L38.3,3.83C38.46,3.58,38.6,3.8,38.77,3.88Z"/><path d="M51.09,27.4v.43l-2.92-.16,0-.42Z"/><path d="M27.33,28.46c0,.26-.16.39-.42.37H25.84v-.37Z"/></g></g></svg>