<svg xmlns="http://www.w3.org/2000/svg" xmlns:xlink="http://www.w3.org/1999/xlink" viewBox="0 0 298.36 124.71"><defs><style>.cls-1{fill:url(#Gradiente_sem_nome_30);}.cls-2{fill:url(#Gradiente_sem_nome_38);}.cls-3{fill:url(#Gradiente_sem_nome_34);}</style><radialGradient id="Gradiente_sem_nome_30" cx="71.47" cy="59.43" r="152" gradientUnits="userSpaceOnUse"><stop offset="0.29" stop-color="#ecc886"/><stop offset="0.72" stop-color="#f7e9cf"/><stop offset="0.98" stop-color="#fff"/></radialGradient><radialGradient id="Gradiente_sem_nome_38" cx="168.04" cy="109.33" r="137.71" gradientUnits="userSpaceOnUse"><stop offset="0.09" stop-color="#ecc886"/><stop offset="0.45" stop-color="#f4dfb8"/><stop offset="1" stop-color="#fff"/></radialGradient><radialGradient id="Gradiente_sem_nome_34" cx="142.23" cy="64.75" r="53.53" gradientUnits="userSpaceOnUse"><stop offset="0.29" stop-color="#ecc886"/><stop offset="0.39" stop-color="#edcc8f"/><stop offset="0.55" stop-color="#f1d7a6"/><stop offset="0.76" stop-color="#f7e8cc"/><stop offset="0.98" stop-color="#fff"/></radialGradient></defs><g id="Layer_2" data-name="Layer 2"><g id="TEXTS"><path class="cls-1" d="M0,16.88v-.25H18.54l1.25,9.14h-.3c-.95-5.24-1.95-8.4-7.06-8.4H5.15V32.63c1.13-3.2,3.5-5.28,6.36-5.28,3.33,0,5.78,2.2,5.78,5.24s-2.12,5.4-5,5.4a4.86,4.86,0,0,1-5-5c0-1.74,1-3,2.25-3A1.41,1.41,0,0,1,11,31.46c0,1.21-2.2,1.17-2.2,2.87s1.5,2.91,3.53,2.91c2.46,0,4.24-2,4.24-4.65a4.52,4.52,0,0,0-4.82-4.49c-3.78,0-6.57,3.86-6.57,9.18v5.24c0,3.41.79,5.45,2.33,5.45v.25H0V48c1.54,0,2.33-2,2.33-5.45V22.32C2.33,18.91,1.54,16.88,0,16.88Z"/><path class="cls-1" d="M29.88,48v.25h-7.4V48c1.54,0,2.33-2,2.33-5.45V22.32c0-3.41-.79-5.44-2.33-5.44v-.25c2.54,0,4.12-.25,5.08-2V42.52C27.56,45.93,28.35,48,29.88,48Z"/><path class="cls-1" d="M32.79,35.75c0-8,3.83-13.14,9.73-13.14s9.72,5.16,9.72,13.14-3.82,13.13-9.72,13.13S32.79,43.73,32.79,35.75Zm9.73,12.38c4.15,0,6.81-4.86,6.81-12.38s-2.66-12.39-6.81-12.39S35.7,28.22,35.7,35.75,38.36,48.13,42.52,48.13Z"/><path class="cls-1" d="M69,24.81v-.24c2.54,0,4.12-.25,5.07-2V44c0,2.7.71,3.32,1.46,3.32,1,0,1.53-1,2-2.37h.25c-.37,2.16-1.87,4-3.41,4-2.53,0-3-2.62-3-4.9V37.74c-1.21,5.61-3.83,11.14-8.36,11.14-3.74,0-5.86-3.53-5.86-9.73V30.26c0-3.41-.79-5.45-2.32-5.45v-.24c2.53,0,4.11-.25,5.07-2v15c0,6.23,1.53,9.8,4.24,9.8,4.69,0,7.23-10,7.23-17.12C71.28,26.85,70.49,24.81,69,24.81Z"/><path class="cls-1" d="M93.85,22.61c1.74,0,3.2.79,3.2,2.2a1.48,1.48,0,0,1-1.46,1.46c-1.2,0-1.16-2.16-2.87-2.16-5.52,0-8.06,10-8.06,17.12v1.29c0,3.41.79,5.45,2.33,5.45v.25h-7.4V48c1.54,0,2.33-2,2.33-5.45V30.26c0-3.41-.79-5.45-2.33-5.45v-.24c2.53,0,4.11-.25,5.07-2V33.88C85.91,28.22,88.73,22.61,93.85,22.61Z"/><path class="cls-1" d="M105.9,48v.25H98.5V48c1.54,0,2.33-2,2.33-5.45V30.26c0-3.41-.79-5.45-2.33-5.45v-.24c2.53,0,4.11-.25,5.07-2V42.52C103.57,45.93,104.36,48,105.9,48Zm-4.49-31.34c1.16,0,1.91,1.08,1.91,2.45s-.75,2.41-1.91,2.41-1.91-1.08-1.91-2.41S100.24,16.63,101.41,16.63Z"/><path class="cls-1" d="M111.22,27.77c0,7.52,13.71,5.27,13.71,14.17,0,4.2-3.11,6.94-8.48,6.94a13,13,0,0,1-7.85-2.66l-.83-5.49H108c1.16,4.49,4.36,7.4,8.43,7.4,3.87,0,6.07-2.12,6.07-5.36,0-7.07-13.75-5.24-13.75-14.05,0-3.7,3-6.11,7.89-6.11a11.69,11.69,0,0,1,6.86,2.33v5.49h-.25c0-4.29-2.58-7.07-6.61-7.07C113.3,23.36,111.22,25.11,111.22,27.77Z"/><path class="cls-1" d="M139.94,24.11c-4.7,0-7.24,10-7.24,17.12v1.29c0,3.41.79,5.45,2.33,5.45v.25h-7.4V48c1.54,0,2.33-2,2.33-5.45V23.61a27.67,27.67,0,0,1,1.91-10.39C122.52,8.15,114.25.75,104,.75,96.79.75,92.3,4.53,92.3,9.56c0,3.08,2,5.57,4.78,5.57,3.41,0,5.28-3.16,5.28-6.36,0-1.62-.75-4-2.53-4.95V3.58c2.37,1,3.32,3.82,3.32,5.9A7.28,7.28,0,0,1,95.92,17c-4,0-6.32-2.91-6.32-6.61C89.6,4.66,94.88,0,104,0c12.27,0,20.91,6.32,28.73,11.26C136,5,141.68,1,148.42,1c6.23,0,10.76,3.45,10.76,8.14,0,5-4.82,8.69-11.43,8.69a31.12,31.12,0,0,1-14-3.66,34,34,0,0,0-1.09,9.11V33.75c1.21-5.61,3.83-11.14,8.36-11.14,3.74,0,5.86,3.53,5.86,9.73V42.52c0,3.41.79,5.45,2.33,5.45v.25h-7.4V48c1.54,0,2.33-2,2.33-5.45v-8.6C144.18,27.68,142.64,24.11,139.94,24.11Zm7.81-7c6.19,0,10.68-3.32,10.68-7.94,0-4.28-4.24-7.39-10-7.39-5.24,0-11.23,2.61-14,10.51C138.86,15,143.14,17.08,147.75,17.08Z"/><path class="cls-2" d="M169.35,94.65v6.78a34.39,34.39,0,0,0,1.08,9.1,31.2,31.2,0,0,1,14-3.66c6.61,0,11.43,3.66,11.43,8.69,0,4.7-4.53,8.15-10.76,8.15-6.74,0-12.43-4-15.67-10.27-7.86,5-16.51,11.27-28.73,11.27-9.14,0-14.42-4.66-14.42-10.4,0-3.7,2.37-6.6,6.32-6.6a7.27,7.27,0,0,1,7.23,7.52c0,2.08-1,4.86-3.32,5.9v-.25c1.78-.91,2.53-3.32,2.53-4.95,0-3.2-1.87-6.35-5.28-6.35-2.74,0-4.78,2.49-4.78,5.56,0,5,4.49,8.82,11.72,8.82,10.23,0,18.5-7.4,27.85-12.43a28,28,0,0,1-1.87-7.69,10.07,10.07,0,0,1-5.73,2c-7.24,0-11.39-6.4-11.39-16.46s4.15-16.46,11-16.46c2.87,0,5.24,1.54,6.32,1.54.5,0,.83-.21.83-.87h.25v9.14h-.29c0-5.23-2.75-9.06-7.11-9.06-5.07,0-8,6.11-8,15.71s2.91,15.71,8.4,15.71a5.31,5.31,0,0,0,5.61-5.48V94.65c0-3.4-.79-5.44-2.33-5.44V89h7.48v.25C170.14,89.21,169.35,91.25,169.35,94.65ZM185.07,123c5.77,0,10-3.12,10-7.4,0-4.61-4.49-7.94-10.68-7.94-4.61,0-8.89,2.12-13.38,4.82C173.84,120.34,179.83,123,185.07,123Z"/><path class="cls-2" d="M174.17,92.66c0-8,3.83-13.14,9.73-13.14s9.72,5.16,9.72,13.14-3.82,13.13-9.72,13.13S174.17,100.64,174.17,92.66ZM183.9,105c4.16,0,6.82-4.86,6.82-12.38s-2.66-12.39-6.82-12.39-6.82,4.86-6.82,12.39S179.74,105,183.9,105Z"/><path class="cls-2" d="M210,73.79v-.25c2.53,0,4.11-.25,5.07-2v29.31c0,2.7.71,3.32,1.45,3.32,1,0,1.54-1,2-2.37h.25c-.37,2.17-1.87,4-3.41,4-2.53,0-3-2.62-3-4.9v-.71c-1.08,3.53-3.29,5.61-6.24,5.61-5.57,0-9.14-5.15-9.14-13.13s3.57-13.14,9.14-13.14c2.95,0,5.16,2.08,6.24,5.61v-5.9C212.33,75.82,211.54,73.79,210,73.79ZM206.09,105c3.78,0,6.24-4.07,6.24-10.39v-4c0-6.32-2.46-10.39-6.24-10.39s-6.23,4.86-6.23,12.39S202.31,105,206.09,105Z"/><path class="cls-2" d="M218.35,80.44v-.25h7.53v.25c-1.54,0-1.63,2.08-.59,5.44l4.37,14,6.15-19.66h.25l6.11,19.62,4.36-13.93c1.08-3.45.88-5.44-.66-5.44v-.25h5.44v.25c-1.54,0-2.91,2-4,5.44l-6.07,19.25H241l-6.1-19.5-6.16,19.5h-.25l-6.06-19.25C221.39,82.52,219.89,80.44,218.35,80.44Z"/><path class="cls-2" d="M260.16,104.88v.25h-7.39v-.25c1.53,0,2.32-2,2.32-5.45V87.17c0-3.41-.79-5.44-2.32-5.44v-.25c2.53,0,4.11-.25,5.07-2V99.43C257.84,102.84,258.63,104.88,260.16,104.88Zm-4.49-31.34c1.17,0,1.92,1.08,1.92,2.45s-.75,2.41-1.92,2.41-1.91-1.08-1.91-2.41S254.51,73.54,255.67,73.54Z"/><path class="cls-2" d="M276.91,79.52c3.74,0,5.86,3.54,5.86,9.73V99c0,4.94,1.79,9.39,7.32,9.39a7.4,7.4,0,0,0,7.52-7.77,5,5,0,0,0-4.9-5.24,4.11,4.11,0,0,0-4.24,4.24c0,2,1.2,3.49,2.91,3.49s1.66-2.16,2.87-2.16a1.46,1.46,0,0,1,1.45,1.45c0,1.42-1.25,2.21-3,2.21a5,5,0,1,1,0-10,6,6,0,0,1,5.65,6.19,8,8,0,0,1-8.27,8.32c-6.65,0-10.06-4.78-10.06-10.14V90.83c0-6.24-1.54-9.81-4.24-9.81-4.7,0-7.23,10-7.23,17.12v1.29c0,3.41.79,5.45,2.33,5.45v.25h-7.4v-.25c1.54,0,2.33-2,2.33-5.45V87.17c0-3.41-.79-5.44-2.33-5.44v-.25c2.53,0,4.11-.25,5.07-2V90.66C269.76,85.05,272.38,79.52,276.91,79.52Z"/><path class="cls-3" d="M173.58,56.28a7.48,7.48,0,0,1,.58,2.39,10.15,10.15,0,0,1-.13,2.68,10,10,0,0,1-.89,2.65,9.52,9.52,0,0,1-1.68,2.41,21,21,0,0,0,4.38,2,15.36,15.36,0,0,0,4.72.73v.58a21,21,0,0,1-5.2-.65,25.86,25.86,0,0,1-4.86-1.78A10.46,10.46,0,0,1,167.34,69a12.36,12.36,0,0,1-4.16.65,14.91,14.91,0,0,1-5.17-.83,11.27,11.27,0,0,1-3.74-2.21A9.16,9.16,0,0,1,152,63.47a9.51,9.51,0,0,1-.75-3.69,9.84,9.84,0,0,1,.46-3.1,9.53,9.53,0,0,1,1.22-2.5,8,8,0,0,1,1.73-1.87,7.19,7.19,0,0,1,2.06-1.16,13.16,13.16,0,0,1-.42-3.16,7.39,7.39,0,0,1,.73-3.45,6.47,6.47,0,0,1,1.85-2.25,7.22,7.22,0,0,1,2.45-1.22,9.64,9.64,0,0,1,2.52-.36,9,9,0,0,1,3,.46,11.39,11.39,0,0,1,2.43,1.17,15.83,15.83,0,0,1,2,1.58l1.81,1.68-3.39,3.24A11.84,11.84,0,0,0,169.4,46a7.07,7.07,0,0,0-1-2.37,5.18,5.18,0,0,0-4.49-2.25,6.41,6.41,0,0,0-1.94.29,4,4,0,0,0-1.58.92,4.3,4.3,0,0,0-1,1.66,7.66,7.66,0,0,0-.36,2.53,15.56,15.56,0,0,0,.85,4.81,25.6,25.6,0,0,0,2.39,5.23,30.08,30.08,0,0,0,3.7,5,24.82,24.82,0,0,0,4.78,4.1,8.58,8.58,0,0,0,1.63-3.14,9.13,9.13,0,0,0,.33-3.33,7,7,0,0,0-.92-2.93,4.69,4.69,0,0,0-2.09-1.93,6.87,6.87,0,0,0-.9-.31,5.67,5.67,0,0,0-.87-.15h-.19a2.28,2.28,0,0,0-1.54.37,2.94,2.94,0,0,0-1,1.63,3.66,3.66,0,0,1,.83-2.68,3,3,0,0,1,2.21-.82,6.16,6.16,0,0,1,2.12.46c.82.31,1.68.65,2.58,1s1.8.73,2.7,1a7.74,7.74,0,0,0,2.51.46,3.17,3.17,0,0,0,1.75-.48,3,3,0,0,0,1.14-1.72,5.57,5.57,0,0,1-.29,1.93,3,3,0,0,1-.75,1.2,2.65,2.65,0,0,1-1,.59,3.9,3.9,0,0,1-1.16.18,6.86,6.86,0,0,1-2-.31C175,56.8,174.28,56.56,173.58,56.28Zm-10.4,12.83A10.63,10.63,0,0,0,167,68.5a9.63,9.63,0,0,0,2.77-1.62,28.55,28.55,0,0,1-4.43-3,27.91,27.91,0,0,1-3.72-3.64,26.89,26.89,0,0,1-2.83-4.05A20,20,0,0,1,156.93,52a6.63,6.63,0,0,0-2.35,2.93,11.07,11.07,0,0,0-.84,4.47,11.69,11.69,0,0,0,.59,3.78,8.94,8.94,0,0,0,1.79,3.1,8.25,8.25,0,0,0,3,2.08A10.43,10.43,0,0,0,163.18,69.11Z"/></g></g></svg>